<svg id="home-soil-moisture-icon" xmlns="http://www.w3.org/2000/svg" width="36.242" height="40" viewBox="0 0 36.242 40">
  <path id="Union_2" data-name="Union 2" d="M21.765,36.5H15.193l-.887,1.982L13.419,36.5H8.511l-1.09,2.529L6.332,36.5H5.119L3.971,38.36,2.823,36.5H0V34.293H.528a.6.6,0,0,1,.2-.032h.871l3.2-5.024a3.413,3.413,0,0,1,2.892-1.588,2.229,2.229,0,0,0,1.809-.931l1.684-2.357a2.2,2.2,0,0,1,1.784-.919h1.846l1.147-1.912a2.261,2.261,0,0,1,1.931-1.093h.547a13.645,13.645,0,0,0,.894-1.675.512.512,0,0,1,.052-.118A14.705,14.705,0,0,0,20.2,16.21a8.475,8.475,0,0,1-1.407.13,5.014,5.014,0,0,1-2.707-.7,5,5,0,0,1-2.12-3.373l-.018-.085a.6.6,0,0,1,.443-.717l.051-.013a6.3,6.3,0,0,1,4.858.437,4.415,4.415,0,0,1,1.274,1.19,11.815,11.815,0,0,0-.127-1.652c0-.009-.005-.017-.007-.026s0-.023,0-.036A11.948,11.948,0,0,0,18.97,7.213c-2.623-.03-4.6-.689-5.866-1.974A6.026,6.026,0,0,1,11.538.729l0-.122a.6.6,0,0,1,.6-.6l.1,0c3.237-.077,5.032,1,5.966,1.915A6.248,6.248,0,0,1,19.948,6.5,13.312,13.312,0,0,1,21.162,9.22c2.328-4.483,7.847-3.352,8.542-3.19a.6.6,0,0,1,.447.723l-.025.117a6.6,6.6,0,0,1-2.821,4.471,6.557,6.557,0,0,1-3.545.928,11.122,11.122,0,0,1-2.05-.206,13.737,13.737,0,0,1-.159,3.361.57.57,0,0,1,0,.111.651.651,0,0,1-.041.113,15.6,15.6,0,0,1-.448,1.808,15.034,15.034,0,0,1,1.456-.5,4.827,4.827,0,0,1,2.714-2.621,5.615,5.615,0,0,1,4.472.7l.1.055a.605.605,0,0,1,.3.8c-.014.03-.03.071-.049.122a4.348,4.348,0,0,1-2.37,2.605,4.185,4.185,0,0,1-1.547.278,8.018,8.018,0,0,1-3.2-.8,5.893,5.893,0,0,0-2.573,1.228c-.2.453-.4.84-.57,1.154a7.391,7.391,0,0,1,2.194.5l.673.269a5.607,5.607,0,0,0,2.1.4h1.17A2.73,2.73,0,0,1,28.3,23.012L34.724,34.26h.854a.6.6,0,0,1,.2.032h.469V36.5H33.4l-.984,2.2-.983-2.2h-7L23.1,40Z" transform="translate(0 0)" fill="#121212"/>
</svg>
