<svg id="home-groundwater-icon" xmlns="http://www.w3.org/2000/svg" width="38.159" height="40" viewBox="0 0 38.159 40">
  <path id="Path_38014" data-name="Path 38014" d="M148.126,400.532l-2.96,6.271-5.174-10.953-4.4,9.329-2.184-4.629-8.485,18h25.787v-.018h5.917Zm6.457,16.276-5.047-6.508-2.074,1.368-.384-.82-.847-3.706,1.9-4.019ZM144.4,408.436l-.912,1.933-1.706-2.2-2.834,1.869-1.337-5.846,2.386-5.075Zm-9.41-1.963-2.445,5.18-1.026-4.492,1.9-4.021Z" transform="translate(-121.611 -395.85)" fill="#121212"/>
  <path id="Path_38015" data-name="Path 38015" d="M111.009,579.861a3.989,3.989,0,0,0,3.029-1.435,2.123,2.123,0,0,1,3.481,0,3.915,3.915,0,0,0,6.058,0,2.123,2.123,0,0,1,3.481,0,3.915,3.915,0,0,0,6.058,0,2.125,2.125,0,0,1,3.483,0,3.915,3.915,0,0,0,6.058,0,2.24,2.24,0,0,1,1.741-.907V575.68a3.987,3.987,0,0,0-3.029,1.433,2.125,2.125,0,0,1-3.483,0,3.918,3.918,0,0,0-6.058,0,2.125,2.125,0,0,1-3.483,0,3.918,3.918,0,0,0-6.058,0,2.123,2.123,0,0,1-3.481,0,3.918,3.918,0,0,0-6.058,0,2.123,2.123,0,0,1-3.481,0,3.986,3.986,0,0,0-3.027-1.433v1.839a2.219,2.219,0,0,1,1.74.907A3.983,3.983,0,0,0,111.009,579.861Z" transform="translate(-106.24 -543.824)" fill="#121212"/>
  <path id="Path_38016" data-name="Path 38016" d="M111.009,602.231a3.989,3.989,0,0,0,3.029-1.435,2.123,2.123,0,0,1,3.481,0,3.915,3.915,0,0,0,6.058,0,2.123,2.123,0,0,1,3.481,0,3.915,3.915,0,0,0,6.058,0,2.125,2.125,0,0,1,3.483,0,3.915,3.915,0,0,0,6.058,0,2.24,2.24,0,0,1,1.741-.907V598.05a3.987,3.987,0,0,0-3.029,1.433,2.125,2.125,0,0,1-3.483,0,3.918,3.918,0,0,0-6.058,0,2.125,2.125,0,0,1-3.483,0,3.918,3.918,0,0,0-6.058,0,2.123,2.123,0,0,1-3.481,0,3.918,3.918,0,0,0-6.058,0,2.123,2.123,0,0,1-3.481,0,3.986,3.986,0,0,0-3.027-1.433v1.839a2.219,2.219,0,0,1,1.74.907A3.983,3.983,0,0,0,111.009,602.231Z" transform="translate(-106.24 -562.231)" fill="#121212"/>
  <path id="Path_38017" data-name="Path 38017" d="M110.421,545.112l1.21-1.956h1.277l1.146,2.663,1.148-2.663h5.167l.934,2.087.934-2.087h6.919l1.407,3.683,1.4-3.683h7.373l1.035,2.314,1.036-2.314H144.4V540.83H106.24v2.326h2.973Z" transform="translate(-106.24 -515.147)" fill="#121212"/>
</svg>
