<svg id="home-reservoir-icon" xmlns="http://www.w3.org/2000/svg" width="49.32" height="40" viewBox="0 0 49.32 40">
  <g id="Layer_1" data-name="Layer 1">
    <g id="Path_408" data-name="Path 408" transform="translate(17.31)">
      <path id="Path_430" data-name="Path 430" d="M427.36,518.106v40h16.072l-9.086-40Z" transform="translate(-427.36 -518.106)" fill="#121212"/>
    </g>
    <g id="Rectangle_281" data-name="Rectangle 281" transform="translate(0 35.727)">
      <rect id="Rectangle_285" data-name="Rectangle 285" width="14.741" height="3.984" fill="#121212"/>
    </g>
    <g id="Rectangle_282" data-name="Rectangle 282" transform="translate(0 24.577)">
      <rect id="Rectangle_286" data-name="Rectangle 286" width="14.741" height="3.984" fill="#121212"/>
    </g>
    <g id="Rectangle_283" data-name="Rectangle 283" transform="translate(0 13.428)">
      <rect id="Rectangle_287" data-name="Rectangle 287" width="14.741" height="3.986" fill="#121212"/>
    </g>
    <g id="Rectangle_284" data-name="Rectangle 284" transform="translate(0 2.28)">
      <rect id="Rectangle_288" data-name="Rectangle 288" width="14.741" height="3.986" fill="#121212"/>
    </g>
    <g id="Path_409" data-name="Path 409" transform="translate(32.549 25.677)">
      <path id="Path_431" data-name="Path 431" d="M451.914,554.214c.319,0,.436.137.694.436a1.98,1.98,0,0,0,3.4,0c.256-.3.373-.436.694-.436s.436.137.694.436a1.981,1.981,0,0,0,3.4,0c.256-.3.371-.436.694-.436v-2.787a2.177,2.177,0,0,0-1.7.962c-.256.3-.371.436-.693.436s-.436-.137-.694-.436a1.98,1.98,0,0,0-3.4,0c-.257.3-.373.436-.693.436s-.435-.137-.694-.436a1.981,1.981,0,0,0-3.4,0c-.254.3-.371.436-.693.436s-.438-.137-.694-.436a2.17,2.17,0,0,0-1.7-.962v2.789c.321,0,.436.136.694.434a1.98,1.98,0,0,0,3.4,0c.256-.3.373-.436.694-.436Z" transform="translate(-447.136 -551.427)" fill="#121212"/>
    </g>
    <g id="Path_410" data-name="Path 410" transform="translate(34.966 32.935)">
      <path id="Path_432" data-name="Path 432" d="M462.233,562.252c-.321,0-.438-.137-.694-.436a1.981,1.981,0,0,0-3.4,0c-.256.3-.371.436-.694.436s-.435-.137-.694-.434a1.98,1.98,0,0,0-3.4,0c-.254.3-.371.436-.694.436s-.436-.137-.694-.436a2.173,2.173,0,0,0-1.7-.962v2.787c.319,0,.436.137.694.436a1.98,1.98,0,0,0,3.4,0c.256-.3.371-.436.694-.436s.436.137.694.436a1.98,1.98,0,0,0,3.4,0c.256-.3.373-.436.694-.436s.436.137.694.436a1.981,1.981,0,0,0,3.4,0c.256-.3.371-.436.694-.436v-2.8a2.177,2.177,0,0,0-1.7.962c-.256.3-.373.436-.694.436Z" transform="translate(-450.273 -560.846)" fill="#121212"/>
    </g>
  </g>
</svg>
