<svg id="home-mitanks-icon" xmlns="http://www.w3.org/2000/svg" width="60.249" height="40" viewBox="0 0 60.249 40">
  <path id="Path_3" data-name="Path 3" d="M52.25,39.62,37.319,25.248s-1.007-.883-1.9.53l-14.1,13.957s-8.711,1.59-8.711,9.246c0,0,.691,4.358,3.615,5.536,0,0,5.135,3.023,9.48,2.944,0,0,9.085,1.256,10.269,1.374,0,0,3.239,7.283,18.644,5.987,0,0,11.2-2,11.731-8.362,0,0,8.828-2.473,5.925-10.953,0,0-1.126-4.711-9.361-5.947L51.973,29.231a.832.832,0,0,0-1.343-.08l-3.4,3.533,7.228,6.949ZM21.562,42.093l41.3-.177s6.991.648,7.761,6.124c0,0,.474,4.417-4.977,6.125a2.7,2.7,0,0,0-1.54,2.65s-.77,3.533-7.821,5.241c0,0-7.821,1.767-11.434-.236,0,0-4.977-1.355-6.932-4.122a2.983,2.983,0,0,0-2.9-1.178S21.976,54.872,20.5,54.106c0,0-7.169-2.12-5.451-7.125,0,0,.412-3.3,6.515-4.891Z" transform="translate(-12.611 -24.975)" fill="#121212" fill-rule="evenodd"/>
  <path id="Forma_1" data-name="Forma 1" d="M24.114,51.364h0v-.029a.42.42,0,0,1,.448-.381h.007c.118.007,2.4.125,3.479-.862a1.667,1.667,0,0,0,.549-1.3.416.416,0,0,1,.42-.411h0a.416.416,0,0,1,.42.411,1.667,1.667,0,0,0,.548,1.3,5.115,5.115,0,0,0,3.154.87,4.745,4.745,0,0,0,2.874-.847,1.685,1.685,0,0,0,.558-1.322.42.42,0,1,1,.84,0,1.667,1.667,0,0,0,.549,1.3,4.929,4.929,0,0,0,3,.869,4.7,4.7,0,0,0,2.827-.846,1.687,1.687,0,0,0,.558-1.322.42.42,0,0,1,.84,0,1.667,1.667,0,0,0,.548,1.3,4.947,4.947,0,0,0,3.012.869,4.719,4.719,0,0,0,2.833-.846,1.686,1.686,0,0,0,.558-1.322.42.42,0,1,1,.84,0,1.667,1.667,0,0,0,.548,1.3c1.1,1.008,3.462.862,3.485.862a.419.419,0,0,1,.448.381.414.414,0,0,1-.39.439c-.111.007-2.742.172-4.116-1.08a2.586,2.586,0,0,1-.393-.451,3.053,3.053,0,0,1-1.453,1.105,6.354,6.354,0,0,1-1.693.39.4.4,0,0,1-.136.034c-.029,0-.23.014-.533.011-.09,0-.172,0-.245,0a1.941,1.941,0,0,1-.608-.057,4.915,4.915,0,0,1-2.73-1.035,2.538,2.538,0,0,1-.393-.45,3.057,3.057,0,0,1-1.453,1.105,6.38,6.38,0,0,1-1.667.387.393.393,0,0,1-.144.037c-.029,0-.236.016-.547.011-.091,0-.176,0-.251,0a1.9,1.9,0,0,1-.614-.057,4.9,4.9,0,0,1-2.7-1.035,2.514,2.514,0,0,1-.393-.45,3.059,3.059,0,0,1-1.454,1.105,6.668,6.668,0,0,1-1.942.413.3.3,0,0,1-.068.011c-.011,0-.051,0-.115.006-.1.008-.22.009-.345.009h-.141a3.275,3.275,0,0,1-.46-.021,6.762,6.762,0,0,1-2-.417,3.064,3.064,0,0,1-1.449-1.1,3.066,3.066,0,0,1-1.45,1.1,7.4,7.4,0,0,1-2.607.438c-.123,0-.239,0-.345-.009a1.122,1.122,0,0,1-.115-.006.41.41,0,0,1-.191-.062.325.325,0,0,1-.189-.267.469.469,0,0,1-.007-.06.076.076,0,0,0,0-.024Zm12.235.732-4.619.051Z" transform="translate(-5.91 -29.393)" fill="#121212" fill-rule="evenodd"/>
  <path id="Forma_1-2" data-name="Forma 1" d="M48.1,50.961a4.745,4.745,0,0,0,2.874-.847,1.685,1.685,0,0,0,.558-1.322.42.42,0,0,1,.84,0,1.667,1.667,0,0,0,.549,1.3,4.929,4.929,0,0,0,3,.869,4.7,4.7,0,0,0,2.827-.846,1.687,1.687,0,0,0,.558-1.322.42.42,0,1,1,.84,0,1.667,1.667,0,0,0,.548,1.3,4.947,4.947,0,0,0,3.012.869,4.719,4.719,0,0,0,2.833-.846,1.686,1.686,0,0,0,.558-1.322.42.42,0,1,1,.84,0,1.667,1.667,0,0,0,.548,1.3c1.1,1.008,3.462.862,3.485.862a.419.419,0,0,1,.448.381.414.414,0,0,1-.39.439c-.111.007-2.742.172-4.116-1.08a2.587,2.587,0,0,1-.393-.451,3.054,3.054,0,0,1-1.453,1.105,6.355,6.355,0,0,1-1.693.39.4.4,0,0,1-.136.034c-.029,0-.23.014-.533.011-.09,0-.172,0-.245,0a1.941,1.941,0,0,1-.608-.057,4.915,4.915,0,0,1-2.73-1.035,2.539,2.539,0,0,1-.393-.45,3.057,3.057,0,0,1-1.453,1.105,6.38,6.38,0,0,1-1.667.387.393.393,0,0,1-.144.037c-.029,0-.236.016-.547.011-.091,0-.176,0-.251,0a1.9,1.9,0,0,1-.614-.057,4.9,4.9,0,0,1-2.7-1.035,2.514,2.514,0,0,1-.393-.45A3.059,3.059,0,0,1,50.5,51.354a6.668,6.668,0,0,1-1.942.413.3.3,0,0,1-.068.011c-.011,0-.051,0-.115.006-.1.008-.22.009-.345.009h-.141a3.276,3.276,0,0,1-.46-.021C46.742,51.734,47.4,50.962,48.1,50.961ZM51.3,52.1l-4.619.051Z" transform="translate(-20.865 -23.083)" fill="#121212" fill-rule="evenodd"/>
</svg>
