<svg xmlns="http://www.w3.org/2000/svg" width="45.616" height="47.917" viewBox="0 0 45.616 47.917">
  <g id="rainfall-home-icon" transform="translate(0 0)">
    <g id="Group_1860" data-name="Group 1860" transform="translate(0)">
      <path id="Path_37374" data-name="Path 37374" d="M136.183,880.027l-2.366,2.356a.994.994,0,0,0,0,1.408,1.023,1.023,0,0,0,.709.289.958.958,0,0,0,.7-.289l2.366-2.356a1,1,0,1,0-1.408-1.408Z" transform="translate(-121.346 -845.856)" fill="#121212"/>
      <path id="Path_37375" data-name="Path 37375" d="M330.236,879.96l-2.456,2.356a.994.994,0,0,0-.03,1.408.989.989,0,0,0,1.407.03l2.456-2.356a1,1,0,1,0-1.378-1.437Z" transform="translate(-295.933 -845.809)" fill="#121212"/>
      <path id="Path_37376" data-name="Path 37376" d="M428.89,880.027a.994.994,0,0,0-1.408,0l-2.366,2.356a.994.994,0,0,0,0,1.408,1.023,1.023,0,0,0,.709.289.943.943,0,0,0,.7-.289l2.366-2.356A.994.994,0,0,0,428.89,880.027Z" transform="translate(-383.566 -845.856)" fill="#121212"/>
      <path id="Path_37377" data-name="Path 37377" d="M38.936,879.96l-2.456,2.356a.994.994,0,0,0-.03,1.408.989.989,0,0,0,1.408.03l2.456-2.356a1,1,0,0,0-1.378-1.437Z" transform="translate(-33.713 -845.809)" fill="#121212"/>
      <path id="Path_37378" data-name="Path 37378" d="M305.573,964.427l-2.456,2.446a.994.994,0,0,0,0,1.408,1.022,1.022,0,0,0,.709.289.982.982,0,0,0,.7-.289l2.456-2.446a1,1,0,0,0-1.408-1.408Z" transform="translate(-273.745 -921.831)" fill="#121212"/>
      <path id="Path_37379" data-name="Path 37379" d="M402.973,964.427l-2.456,2.446a.994.994,0,0,0,0,1.408,1.022,1.022,0,0,0,.709.289.965.965,0,0,0,.7-.289l2.456-2.446a1,1,0,0,0-1.407-1.408Z" transform="translate(-361.422 -921.831)" fill="#121212"/>
      <path id="Path_37380" data-name="Path 37380" d="M111.673,964.427l-2.456,2.446a.994.994,0,0,0,0,1.408,1.012,1.012,0,0,0,1.418,0l2.446-2.446a1,1,0,0,0-1.408-1.408Z" transform="translate(-99.202 -921.831)" fill="#121212"/>
      <path id="Path_37381" data-name="Path 37381" d="M201.65,872.982l-4.622.749,4.362-5.191a1,1,0,0,0-1.527-1.288l-6.089,7.247a1.012,1.012,0,0,0-.1,1.138,1,1,0,0,0,1.028.489l4.652-.749-4.3,5.2a1,1,0,0,0,.13,1.408,1.045,1.045,0,0,0,.639.23h0a.975.975,0,0,0,.769-.359l5.99-7.258a.979.979,0,0,0,.1-1.128A1,1,0,0,0,201.65,872.982Z" transform="translate(-175.372 -834.299)" fill="#121212"/>
      <path id="Path_37382" data-name="Path 37382" d="M14.273,964.427l-2.456,2.446a.994.994,0,0,0,0,1.408,1.022,1.022,0,0,0,.709.289.982.982,0,0,0,.7-.289l2.456-2.446a1,1,0,0,0-1.408-1.408Z" transform="translate(-11.525 -921.831)" fill="#121212"/>
      <path id="Path_37383" data-name="Path 37383" d="M76.76,554.675a14.327,14.327,0,0,0-27.043-6.589,10.467,10.467,0,0,0-3.045-.479,10.692,10.692,0,1,0,0,21.383H62.394A14.364,14.364,0,0,0,76.76,554.675ZM46.671,566.994a8.7,8.7,0,1,1,0-17.39h0a8.665,8.665,0,0,1,3.165.649.994.994,0,0,0,1.288-.509,12.331,12.331,0,1,1,11.271,17.25Z" transform="translate(-33.512 -540.36)" fill="#121212"/>
    </g>
  </g>
</svg>
